<svg xmlns="http://www.w3.org/2000/svg" fill="currentColor" width="24" height="24" viewBox="0 0 24 24">
    <path d="M12 7c2.76 0 5 2.24 5 5 0 .65-.13 1.26-.36 1.83l2.92 2.92c1.51-1.24 2.73-2.82 3.44-4.75-1.66-4.22-5.69-7-10-7-.91 0-1.78.13-2.61.36l2.15 2.15c.57-.23 1.18-.36 1.83-.36zM2 4.27l2.28 2.28.46.46C3.08 8.3 1.78 10.02 1 12c1.73 4.39 6 7 11 7 1.55 0 3.03-.39 4.33-1.06l.45.45 3.03 3.03.71-.71L2.71 3.56l-.71.71zM7.53 9.8l1.44 1.44c-.05.19-.08.39-.08.59 0 1.66 1.34 3 3 3 .2 0 .4-.03.59-.08l1.44 1.44c-.63.38-1.35.61-2.12.61-2.76 0-5-2.24-5-5 0-.77.17-1.49.55-2.12z"/>
</svg>